<?xml version="1.0" encoding="UTF-8"?>
<svg width="120px" height="28px" viewBox="0 0 120 28" version="1.1" xmlns="http://www.w3.org/2000/svg" xmlns:xlink="http://www.w3.org/1999/xlink">
    <!-- Generator: Sketch 58 (84663) - https://sketch.com -->
    <title>Logo 01</title>
    <desc>Created with Sketch.</desc>
    <g id="Symbols" stroke="none" stroke-width="1" fill="none" fill-rule="evenodd">
        <g id="Navigation-mobile" transform="translate(-91.000000, -54.000000)">
            <g id="Logo-01" transform="translate(91.000000, 54.000000)">
                <g id="Symbol-logo">
                    <path d="M24.6208552,22.2217275 C24.6208552,23.5586543 23.5375448,24.64294 22.1993379,24.64294 L2.62609655,24.64294 C1.28871724,24.64294 0.207062069,23.5586543 0.207062069,22.2217275 L0.207062069,2.63251981 C0.207062069,1.29393637 1.28871724,0.207165666 2.62609655,0.207165666 L22.1993379,0.207165666 C23.5375448,0.207165666 24.6208552,1.29393637 24.6208552,2.63251981 L24.6208552,22.2217275 Z" id="Fill-1" fill="#FEFEFE"></path>
                    <path d="M24.6309517,11.4469592 C22.2508138,10.401605 19.5048828,9.84248139 16.4295724,9.80603481 C14.8050207,7.66065666 14.1528828,3.55130492 14.3316414,0.227211285 L11.3498483,0.227211285 C11.2232276,3.19760744 11.6469517,8.05162905 13.7912276,11.2191681 C11.7015724,13.881425 7.40722759,17.6130576 0.132744828,16.8046062 L0.132744828,19.8006807 C0.805572414,19.8644622 1.45936552,19.8984238 2.08998621,19.8984238 C9.74929655,19.8984238 14.3126069,15.4246062 16.3327448,12.7905126 C19.5744,12.8203325 22.3468138,13.5061909 24.6309517,14.7983878 L24.6309517,11.4469592 Z" id="Fill-3" fill="#CDCBCB"></path>
                    <path d="M24.4135448,14.4358271 C20.5073379,10.4233902 15.5426483,9.57186555 12.5476138,9.47743577 C11.3914759,7.57972869 10.4124414,3.37263385 10.461269,0.435370948 L7.48195862,0.435370948 C7.44306207,3.78431453 8.46844138,8.56544298 10.0888552,11.1432101 C8.24995862,13.5644226 5.14568276,16.3161393 0.413544828,16.7468715 L0.413544828,19.735491 C6.87947586,19.2484322 10.8684414,15.1647587 12.8107862,12.4668836 C16.3396138,12.6366915 21.3266483,13.9628499 24.4135448,19.3991885 L24.4135448,14.4358271 Z" id="Fill-5" fill="#E63135"></path>
                    <path d="M2.65257931,0.480432173 C1.45506207,0.480432173 0.479337931,1.45786315 0.479337931,2.65894358 L0.479337931,22.1951381 C0.479337931,23.3945618 1.45506207,24.3695078 2.65257931,24.3695078 L22.1736828,24.3695078 C23.3728552,24.3695078 24.3477517,23.3945618 24.3477517,22.1951381 L24.3477517,2.65894358 C24.3477517,1.45786315 23.3728552,0.480432173 22.1736828,0.480432173 L2.65257931,0.480432173 Z M22.1736828,24.84994 L2.65257931,24.84994 C1.1894069,24.84994 0.000165517241,23.6587995 0.000165517241,22.1951381 L0.000165517241,2.65894358 C0.000165517241,1.19279712 1.1894069,0 2.65257931,0 L22.1736828,0 C23.6368552,0 24.8277517,1.19279712 24.8277517,2.65894358 L24.8277517,22.1951381 C24.8277517,23.6587995 23.6368552,24.84994 22.1736828,24.84994 L22.1736828,24.84994 Z" id="Fill-7" fill="#CDCBCB"></path>
                </g>
                <path d="M87.6577655,17.0232857 C88.6210759,17.0232857 89.4321103,17.4084598 90.134731,18.1937179 L90.134731,17.188952 L92.2111448,17.188952 L92.2111448,23.8098043 C92.2111448,26.1763469 90.7256276,27.5811969 88.2097655,27.5811969 C87.4252138,27.5811969 86.5446621,27.4436939 85.8296276,27.2225294 C85.5697655,27.1413529 85.4174897,27.0866831 85.0318345,26.9201885 L85.6781793,25.3803205 C86.5041103,25.7224214 87.1769379,25.8599244 87.8365241,25.8599244 C89.1714207,25.8599244 89.9973517,25.2138259 89.9973517,24.1808968 L89.9973517,23.7269712 C89.3634207,24.4426495 88.6483862,24.7599004 87.7272828,24.7599004 C85.7336276,24.7599004 84.4674207,23.2738739 84.4674207,20.9048463 C84.4674207,18.6343902 85.7890759,17.0232857 87.6577655,17.0232857 Z M36.7343172,13.8158211 L36.7343172,24.6777299 L34.6446621,24.6777299 L34.6446621,23.6307191 C33.9577655,24.4573938 33.1881103,24.8284862 32.1974897,24.8284862 C30.2435586,24.8284862 28.9657655,23.3134682 28.9657655,20.9734322 C28.9657655,18.6209712 30.2865931,16.9966134 32.1974897,16.9966134 C33.0763862,16.9966134 33.7922483,17.3262893 34.4526621,18.0162893 L34.4526621,13.8158211 L36.7343172,13.8158211 Z M105.750041,17.0227887 C108.048248,17.0227887 109.354179,18.5792233 109.354179,21.2911801 C109.354179,21.3872665 109.354179,21.5247695 109.341766,21.7045174 L104.277766,21.7045174 C104.375421,22.6397035 105.145076,23.2046255 106.341766,23.2046255 C106.932662,23.2046255 107.469766,23.0803758 108.308938,22.7780348 L108.913903,24.1936531 C108.665628,24.3038211 108.488524,24.3725726 108.377628,24.4288992 C107.716386,24.6782269 106.932662,24.8149016 106.175421,24.8149016 C103.659559,24.8149016 102.009352,23.2592953 102.009352,20.9333409 C102.009352,18.6206399 103.523007,17.0227887 105.750041,17.0227887 Z M79.9562483,17.0227059 C82.2395586,17.0227059 83.4635586,18.0970516 83.4635586,20.1074118 L83.4635586,24.6773157 L81.4690759,24.6773157 L81.4823172,23.740473 C80.8094897,24.4843145 80.0936276,24.8148187 79.1038345,24.8148187 C77.5910069,24.8148187 76.4762483,23.8100528 76.4762483,22.4457911 C76.4762483,20.8222617 77.8533517,19.9284922 80.3700414,19.9284922 C80.6994207,19.9284922 80.9460414,19.9284922 81.330869,19.9558271 L81.330869,19.8721657 C81.330869,19.033066 80.7259034,18.5791405 79.6674207,18.5791405 C79.2122483,18.5791405 78.6362483,18.6760552 77.7705931,18.9634862 L77.274869,17.532958 C77.5355586,17.4368715 77.6464552,17.3946267 77.8376276,17.3399568 C78.5270069,17.1345306 79.2544552,17.0227059 79.9562483,17.0227059 Z M41.4965793,17.0227887 C43.7923034,17.0227887 45.0998897,18.5792233 45.0998897,21.2911801 C45.0998897,21.3872665 45.0998897,21.5247695 45.0849931,21.7045174 L40.0243034,21.7045174 C40.1203034,22.6397035 40.8907862,23.2046255 42.0866483,23.2046255 C42.6783724,23.2046255 43.2154759,23.0803758 44.0538207,22.7780348 L44.6579586,24.1936531 C44.4113379,24.3038211 44.2317517,24.3725726 44.1233379,24.4288992 C43.4637517,24.6782269 42.6783724,24.8149016 41.9219586,24.8149016 C39.405269,24.8149016 37.7550621,23.2592953 37.7550621,20.9333409 C37.7550621,18.6206399 39.2678897,17.0227887 41.4965793,17.0227887 Z M66.4517793,17.0227887 C68.748331,17.0227887 70.0542621,18.5792233 70.0542621,21.2911801 C70.0542621,21.3872665 70.0542621,21.5247695 70.0410207,21.7045174 L64.9795034,21.7045174 C65.076331,22.6397035 65.8459862,23.2046255 67.0435034,23.2046255 C67.6344,23.2046255 68.1698483,23.0803758 69.0098483,22.7780348 L69.6148138,24.1936531 C69.3673655,24.3038211 69.1886069,24.3725726 69.0785379,24.4288992 C68.4189517,24.6782269 67.6344,24.8149016 66.8771586,24.8149016 C64.3612966,24.8149016 62.7110897,23.2592953 62.7110897,20.9333409 C62.7110897,18.6206399 64.2239172,17.0227887 66.4517793,17.0227887 Z M71.5044414,15.3447551 L73.7877517,15.3588367 L73.7877517,17.189449 L75.4785103,17.189449 L75.4785103,18.9372281 L73.7877517,18.9372281 L73.7877517,21.7866879 C73.7877517,22.1851152 73.8001655,22.2961116 73.8001655,22.3648631 C73.8415448,22.8734586 74.1990621,23.1352113 74.8454069,23.1352113 C75.1193379,23.1352113 75.2724414,23.094623 75.6026483,22.9977083 L75.8914759,24.4986447 C75.1350621,24.7322341 74.7783724,24.8009856 74.1849931,24.8009856 C73.3060966,24.8009856 72.6589241,24.6088127 72.1905103,24.1813938 C71.669131,23.7274682 71.5044414,23.2188727 71.5044414,22.0749472 L71.5044414,18.9372281 L70.377269,18.9372281 L70.377269,17.189449 L71.5044414,17.189449 L71.5044414,15.3447551 Z M61.6609655,17.0378643 C61.9762759,17.0378643 62.1691034,17.0925342 62.6102069,17.2292089 L62.1136552,19.1716459 C61.8388966,19.129401 61.7147586,19.116976 61.5095172,19.116976 C60.8350345,19.116976 60.4361379,19.2958956 60.1481379,19.6951513 C59.8725517,20.0521621 59.8187586,20.3826663 59.8187586,21.3592689 L59.8187586,24.6783926 L57.5213793,24.6783926 L57.5213793,17.189449 L59.5845517,17.189449 L59.5845517,18.277048 C60.134069,17.3816218 60.7241379,17.0378643 61.6609655,17.0378643 Z M98.1580966,17.0229544 C99.8637517,17.0229544 100.990924,18.2074682 100.990924,20.0107455 L100.990924,24.6783926 L98.6943724,24.6783926 L98.6943724,20.6576723 C98.6943724,20.3959196 98.6943724,20.1904934 98.6670621,20.0389088 C98.5826483,19.3911537 98.1167172,18.9637347 97.4695448,18.9637347 C97.0027862,18.9637347 96.5078897,19.2122341 96.1917517,19.6114898 C95.9434759,19.9560756 95.901269,20.1904934 95.901269,20.8780084 L95.901269,24.6783926 L93.6196138,24.6783926 L93.6196138,17.189449 L95.6960276,17.189449 L95.6960276,18.304383 C96.4938207,17.3948752 97.1823724,17.0229544 98.1580966,17.0229544 Z M52.4997517,14.7532437 C53.601269,14.7532437 54.1648552,14.8344202 54.7416828,15.1094262 C55.5808552,15.4946002 56.0889931,16.3626915 56.0889931,17.381539 C56.0889931,18.4277215 55.5254069,19.2809028 54.605131,19.5559088 C55.8829241,19.736485 56.6136828,20.5871813 56.6136828,21.8826915 C56.6136828,22.9007107 56.1038897,23.7688019 55.209269,24.2492341 C54.5730391,24.6012749 54.2069854,24.6703358 52.8596769,24.6769226 L48.8434759,24.6774814 L48.8434759,14.7532437 L52.4997517,14.7532437 Z M80.7805241,21.2910972 C79.3926621,21.2910972 78.6784552,21.6638463 78.6784552,22.3919496 C78.6784552,22.9013733 79.1179034,23.2592125 79.7369379,23.2592125 C80.6315586,23.2592125 81.3043862,22.6669556 81.3043862,21.8692725 L81.3043862,21.3043505 C81.0561103,21.2910972 80.9460414,21.2910972 80.7805241,21.2910972 Z M32.8579034,18.8396507 C31.8954207,18.8396507 31.2896276,19.653072 31.2896276,20.9601789 C31.2896276,22.2134442 31.9086621,23.0384622 32.8703172,23.0384622 C33.8625931,23.0384622 34.466731,22.2399508 34.466731,20.9469256 C34.466731,19.653072 33.8476966,18.8396507 32.8579034,18.8396507 Z M88.3190069,18.853898 C87.3565241,18.853898 86.7374897,19.6391561 86.7374897,20.8642581 L86.7374897,20.9876795 C86.7780414,22.2268631 87.3697655,22.9425414 88.3322483,22.9425414 C89.3634207,22.9425414 89.9551448,22.1846182 89.9551448,20.8775114 C89.9551448,19.5977395 89.3510069,18.853898 88.3190069,18.853898 Z M52.4997517,20.4919232 L51.221131,20.4919232 L51.221131,22.8866291 L52.4583724,22.8866291 C53.1055448,22.8866291 53.3803034,22.8460408 53.6550621,22.6944562 C53.9844414,22.4873733 54.2045793,22.1162809 54.2045793,21.6905186 C54.2045793,20.8770972 53.6550621,20.4919232 52.4997517,20.4919232 Z M41.5230621,18.6338932 C40.6847172,18.6338932 40.1070621,19.2120684 39.9829241,20.1629928 L43.0218207,20.1629928 C42.9117517,19.1979868 42.3481655,18.6338932 41.5230621,18.6338932 Z M66.4790897,18.6338932 C65.6399172,18.6338932 65.0622621,19.2120684 64.9389517,20.1629928 L67.9778483,20.1629928 C67.8686069,19.1979868 67.3041931,18.6338932 66.4790897,18.6338932 Z M105.778179,18.6338932 C104.939007,18.6338932 104.360524,19.2120684 104.237214,20.1629928 L107.27611,20.1629928 C107.166041,19.1979868 106.602455,18.6338932 105.778179,18.6338932 Z M52.1844414,16.4869412 L51.1929931,16.4869412 L51.1929931,18.7292341 L52.1149241,18.7292341 C53.2015448,18.7292341 53.7518897,18.35897 53.7518897,17.5877935 C53.7518897,16.8580336 53.2296828,16.4869412 52.1844414,16.4869412 Z M34.411531,1.08817887 C35.4029793,1.08817887 36.2123586,1.23976351 37.3411862,1.61085594 L36.9000828,3.37271669 C36.047669,3.08362905 35.4170483,2.95937935 34.6862897,2.95937935 C32.6793931,2.95937935 31.3858759,4.23915126 31.3858759,6.23542977 C31.3858759,8.17703842 32.7613241,9.52473349 34.7822897,9.52473349 C35.3740138,9.52473349 36.047669,9.40048379 36.9000828,9.16689436 L37.4512552,10.9287551 C37.0258759,11.0803397 36.8446345,11.1499196 36.5425655,11.2178427 C35.9524966,11.3694274 35.2780138,11.4381789 34.631669,11.4381789 C31.1798069,11.4381789 28.9651862,9.42781873 28.9651862,6.27767467 C28.9651862,3.13829892 31.1102897,1.08817887 34.411531,1.08817887 Z M88.619669,3.73014166 L88.619669,7.76328691 C88.619669,8.28596399 88.6751172,8.64380312 88.8124966,8.87822089 C89.0326345,9.26422329 89.5142897,9.53922929 90.0232552,9.53922929 C90.9576,9.53922929 91.4384276,8.91880912 91.4384276,7.76328691 L91.4251862,3.74339496 L93.707669,3.74339496 L93.707669,8.13520768 C93.707669,10.1579928 92.3338759,11.4112581 90.0753931,11.4112581 C87.7267034,11.4112581 86.3231172,10.1712461 86.3231172,8.12112605 L86.3363586,3.73014166 L88.619669,3.73014166 Z M103.26,3.73014166 L103.26,7.76328691 C103.26,8.28596399 103.315448,8.64380312 103.452,8.87822089 C103.673793,9.26422329 104.155448,9.53922929 104.665241,9.53922929 C105.599586,9.53922929 106.080414,8.91880912 106.080414,7.76328691 L106.067172,3.74339496 L108.349655,3.74339496 L108.349655,8.13520768 C108.349655,10.1579928 106.974207,11.4112581 104.719034,11.4112581 C102.367034,11.4112581 100.965103,10.1712461 100.965103,8.12112605 L100.978345,3.73014166 L103.26,3.73014166 Z M59.5413517,0.372003601 L59.5413517,11.2322557 L57.4525241,11.2322557 L57.4525241,10.1860732 C56.7664552,11.0110912 55.9943172,11.3838403 55.0053517,11.3838403 C53.0530759,11.3838403 51.7736276,9.86965066 51.7736276,7.53044298 C51.7736276,5.175497 53.0944552,3.55031092 55.0053517,3.55031092 C55.8859034,3.55031092 56.6009379,3.88081513 57.2605241,4.56998679 L57.2605241,0.372003601 L59.5413517,0.372003601 Z M112.981738,3.57822569 C115.276634,3.57822569 116.585876,5.13466026 116.585876,7.84578872 C116.585876,7.94270348 116.585876,8.08020648 116.570979,8.25995438 L111.508634,8.25995438 C111.604634,9.19514046 112.373462,9.76006242 113.571807,9.76006242 C114.162703,9.76006242 114.700634,9.63581273 115.538152,9.33264346 L116.143117,10.7499184 C115.895669,10.8600864 115.71691,10.9280096 115.607669,10.9843361 C114.948083,11.2328355 114.162703,11.3695102 113.407117,11.3695102 C110.8896,11.3695102 109.240221,9.81473229 109.240221,7.48794958 C109.240221,5.1752485 110.752221,3.57822569 112.981738,3.57822569 Z M47.2852138,3.57830852 C49.5817655,3.57830852 50.8876966,5.1347431 50.8876966,7.84504322 C50.8876966,7.94278631 50.8876966,8.08028932 50.8744552,8.25920888 L45.8137655,8.25920888 C45.9097655,9.19439496 46.6785931,9.76014526 47.8752828,9.76014526 C48.4678345,9.76014526 49.0049379,9.63589556 49.8424552,9.33189796 L50.4474207,10.7500012 C50.2008,10.8593409 50.0212138,10.9280924 49.9119724,10.984419 C49.2515586,11.23209 48.4678345,11.369593 47.7105931,11.369593 C45.1939034,11.369593 43.5436966,9.81398679 43.5436966,7.48803241 C43.5436966,5.17533133 45.0565241,3.57830852 47.2852138,3.57830852 Z M65.4434483,1.89886675 L67.7251034,1.91377671 L67.7251034,3.74356062 L69.4175172,3.74356062 L69.4175172,5.49133974 L67.7251034,5.49133974 L67.7251034,8.34079952 C67.7251034,8.73922689 67.74,8.85022329 67.74,8.91897479 C67.7813793,9.42839856 68.1388966,9.69097959 68.786069,9.69097959 C69.06,9.69097959 69.2114483,9.64956303 69.5408276,9.55264826 L69.8296552,11.0535846 C69.074069,11.2871741 68.7165517,11.3559256 68.1248276,11.3559256 C67.2434483,11.3559256 66.597931,11.1629244 66.1311724,10.7371621 C65.6089655,10.2815798 65.4434483,9.77381273 65.4434483,8.63154382 L65.4434483,5.49133974 L64.3154483,5.49133974 L64.3154483,3.74356062 L65.4434483,3.74356062 L65.4434483,1.89886675 Z M95.8006345,1.89886675 L98.0864276,1.91377671 L98.0864276,3.74356062 L99.7780138,3.74356062 L99.7780138,5.49133974 L98.0864276,5.49133974 L98.0864276,8.34079952 C98.0864276,8.73922689 98.0988414,8.85022329 98.0988414,8.91897479 C98.1418759,9.42839856 98.4993931,9.69097959 99.1449103,9.69097959 C99.419669,9.69097959 99.5694621,9.64956303 99.9021517,9.55264826 L100.190152,11.0535846 C99.4329103,11.2871741 99.0770483,11.3559256 98.4853241,11.3559256 C97.6047724,11.3559256 96.9576,11.1629244 96.4908414,10.7371621 C95.9678069,10.2815798 95.8006345,9.77381273 95.8006345,8.63154382 L95.8006345,5.49133974 L94.6751172,5.49133974 L94.6751172,3.74356062 L95.8006345,3.74356062 L95.8006345,1.89886675 Z M63.3616552,3.74438896 L63.3616552,11.2333325 L61.0651034,11.2333325 L61.0651034,3.74438896 L63.3616552,3.74438896 Z M42.6220966,3.59280432 C42.9382345,3.59280432 43.1302345,3.64664586 43.5713379,3.78580552 L43.0747862,5.7257575 C42.8016828,5.68351261 42.6767172,5.6702593 42.4706483,5.6702593 C41.7969931,5.6702593 41.3989241,5.8500072 41.109269,6.25009124 C40.8345103,6.60627371 40.7790621,6.93677791 40.7790621,7.91420888 L40.7790621,11.2325042 L38.4825103,11.2325042 L38.4825103,3.74356062 L40.5456828,3.74356062 L40.5456828,4.83115966 C41.0952,3.93573349 41.6860966,3.59280432 42.6220966,3.59280432 Z M76.8361655,1.30752101 L78.9820966,7.36345138 C79.1045793,7.70886555 79.2005793,8.60346339 79.2700966,9.60740096 C79.3106483,8.67055822 79.4496828,7.69478391 79.5597517,7.36345138 L81.6924414,1.30752101 L85.1989241,1.30752101 L85.1989241,11.232587 L82.9569931,11.232587 L82.9843034,4.61173469 C82.9843034,4.45932173 83.0670621,3.67489196 83.177131,2.93187875 C83.0670621,3.38580432 83.0265103,3.56389556 82.9437517,3.86789316 C82.8734069,4.07414766 82.8038897,4.28040216 82.6946483,4.57031813 L80.3848552,11.232587 L78.1718897,11.232587 L75.8347862,4.57031813 C75.7222345,4.28040216 75.6676138,4.06089436 75.6121655,3.86789316 C75.5145103,3.57797719 75.4615448,3.38580432 75.3514759,2.93187875 L75.4201655,3.31622449 L75.4747862,3.86789316 C75.5285793,4.32181873 75.5575448,4.51564826 75.5575448,4.61173469 L75.5980966,11.232587 L73.3429241,11.232587 L73.3429241,1.30752101 L76.8361655,1.30752101 Z M120,0.372252101 L120,11.2325042 L117.718345,11.2325042 L117.718345,0.372252101 L120,0.372252101 Z M55.6649379,5.39583313 C54.7024552,5.39583313 54.0974897,6.2092545 54.0974897,7.51636134 C54.0974897,8.76796999 54.7165241,9.59381633 55.6790069,9.59381633 C56.6704552,9.59381633 57.2745931,8.79530492 57.2745931,7.50227971 C57.2745931,6.2092545 56.6572138,5.39583313 55.6649379,5.39583313 Z M47.3125241,5.18858463 C46.4741793,5.18858463 45.8940414,5.76758824 45.7723862,6.71768427 L48.8121103,6.71768427 C48.7012138,5.7535066 48.1384552,5.18858463 47.3125241,5.18858463 Z M113.008221,5.1885018 C112.169048,5.1885018 111.591393,5.7675054 111.46891,6.71760144 L114.506979,6.71760144 C114.396083,5.75342377 113.833324,5.1885018 113.008221,5.1885018 Z M47.5459034,-8.28331315e-05 L49.4021793,0.923506603 L47.6013517,3.12438295 L46.1985931,2.42361465 L47.5459034,-8.28331315e-05 Z M63.3757241,0.565253301 L63.3757241,2.74045138 L61.0394483,2.74045138 L61.0394483,0.565253301 L63.3757241,0.565253301 Z" id="XXX" fill="#6C6C6B"></path>
            </g>
        </g>
    </g>
</svg>