<?xml version="1.0" encoding="UTF-8"?>
<svg width="340px" height="56px" viewBox="0 0 340 56" version="1.1" xmlns="http://www.w3.org/2000/svg" xmlns:xlink="http://www.w3.org/1999/xlink">
    <!-- Generator: Sketch 47.1 (45422) - http://www.bohemiancoding.com/sketch -->
    <title>Page 1</title>
    <desc>Created with Sketch.</desc>
    <defs>
        <polygon id="path-1" points="0 55.0706 339.801 55.0706 339.801 -0.0004 0 -0.0004"></polygon>
    </defs>
    <g id="Page-1" stroke="none" stroke-width="1" fill="none" fill-rule="evenodd">
        <g id="menu-Epipoli" transform="translate(-101.000000, -108.000000)">
            <g id="Page-1" transform="translate(101.000000, 108.000000)">
                <path d="M64.3814,24.604 C64.6354,26.34 64.8044,27.145 65.1864,28.118 C65.9904,30.193 67.2184,31.803 68.9124,32.946 C70.9454,34.301 74.3334,35.148 77.8054,35.148 C82.3364,35.148 85.6824,34.09 87.9264,31.929 C89.6624,30.193 90.5944,27.737 90.5944,24.731 C90.5944,21.555 89.4934,19.225 87.0794,17.447 C85.5544,16.389 83.5224,15.583 80.1764,14.864 C75.4764,13.805 75.1374,13.721 74.2054,13.34 C72.2584,12.492 71.3264,11.264 71.3264,9.486 C71.3264,6.733 73.8254,4.87 77.5084,4.87 C79.8384,4.87 81.7014,5.59 82.8024,6.902 C83.5224,7.749 83.8184,8.469 84.0724,9.91 L90.1284,9.189 C89.6204,6.945 89.1124,5.675 88.0534,4.277 C85.9784,1.482 82.3364,0 77.5084,0 C70.2254,0 65.4834,3.811 65.4834,9.697 C65.4834,12.535 66.5834,14.864 68.7434,16.558 C70.2674,17.744 71.9614,18.421 75.1374,19.141 C80.9814,20.496 81.2354,20.538 82.5064,21.216 C83.8184,21.936 84.6234,23.375 84.6234,25.112 C84.6234,28.288 82.0824,30.193 77.8484,30.193 C75.0954,30.193 72.8934,29.304 71.6644,27.695 C70.9034,26.721 70.6494,25.874 70.4794,23.969 L64.3814,24.604 Z" id="Fill-1" fill="#231F20"></path>
                <path d="M102.2711,34.5728 C102.0171,32.9638 101.9321,31.3538 101.9321,29.0678 L101.9321,21.9958 L110.0201,21.9958 C114.0861,21.9958 116.9651,21.0208 119.0421,18.9478 C120.9041,16.9998 121.8781,14.3738 121.8781,11.1558 C121.8781,8.1048 120.9881,5.5658 119.2521,3.8718 C117.2201,1.8388 114.3401,0.8648 110.2321,0.8648 L101.3821,0.8648 C99.1381,0.8648 97.8251,0.8228 96.0041,0.7378 C96.2581,2.6438 96.3421,4.1688 96.3421,6.2008 L96.3421,29.1098 C96.3421,31.3958 96.2581,32.8788 96.0041,34.5728 L102.2711,34.5728 Z M101.9321,17.1268 L101.9321,5.7348 L110.0201,5.7348 C112.2651,5.7348 113.6641,6.2008 114.6371,7.2598 C115.5681,8.2328 116.0341,9.6308 116.0341,11.3248 C116.0341,15.0508 113.9171,17.1268 110.0201,17.1268 L101.9321,17.1268 Z" id="Fill-3" fill="#231F20"></path>
                <path d="M154.0074,34.5728 C153.4154,33.4708 152.9064,32.2858 151.8494,29.5758 L142.4474,5.1418 C141.4744,2.5588 141.2184,1.8818 141.0074,0.8648 L133.6394,0.8648 C133.4274,1.9668 133.0884,3.0248 132.2834,5.1418 L122.9674,29.5758 C122.2054,31.5238 121.3594,33.4288 120.7244,34.5728 L127.6684,34.5728 C128.0064,32.7948 128.1764,32.1598 128.9394,30.1268 L130.6314,25.5098 L144.1844,25.5098 L145.8764,30.1268 C146.3424,31.3538 146.8094,33.1758 147.0634,34.5728 L154.0074,34.5728 Z M142.6584,20.6398 L132.1574,20.6398 L136.5614,8.1048 C136.6884,7.7248 136.6884,7.7248 137.3654,5.7348 C137.8304,7.1318 137.9584,7.6398 138.1274,8.1048 L142.6584,20.6398 Z" id="Fill-5" fill="#231F20"></path>
                <path d="M185.6724,34.5728 C185.0794,33.4288 184.0204,31.1418 183.6824,30.3808 C179.4894,20.4708 178.6844,19.2858 176.0174,18.4378 C178.4304,17.7608 179.5314,17.2108 180.7174,15.9818 C182.1574,14.5008 182.8774,12.3838 182.8774,9.6728 C182.8774,4.0838 179.1934,0.8648 172.7564,0.8648 L162.5934,0.8648 C160.2644,0.8648 158.9514,0.8228 157.1724,0.7378 C157.4264,2.7278 157.5114,3.9988 157.5114,6.2438 L157.5114,29.0678 C157.5114,31.6508 157.4264,32.7948 157.1724,34.5728 L163.4824,34.5728 C163.2284,32.9218 163.1444,31.5668 163.1444,29.0258 L163.1444,20.3858 L169.4534,20.3858 C172.7144,20.3858 174.1964,21.9538 176.4824,27.7978 C177.8804,31.3958 178.6004,33.5558 178.6844,34.5728 L185.6724,34.5728 Z M163.1444,15.5588 L163.1444,5.6928 L171.8254,5.6928 C175.2974,5.6928 177.0334,7.2598 177.0334,10.3078 C177.0334,11.9178 176.5674,13.1448 175.6784,14.0348 C174.7044,15.0088 173.2224,15.5588 171.6554,15.5588 L163.1444,15.5588 Z" id="Fill-7" fill="#231F20"></path>
                <path d="M204.0396,14.6275 L213.1016,5.3535 C214.9646,3.4475 216.3626,2.0925 217.5906,0.8645 L209.5866,0.8645 C208.7396,2.2615 207.9356,3.2785 206.2836,4.9725 L195.4846,16.1945 L195.4846,6.3275 C195.4846,3.9135 195.6126,2.2615 195.8666,0.8645 L189.5996,0.8645 C189.8526,2.6435 189.9366,4.0405 189.9366,6.3275 L189.9366,29.1095 C189.9366,31.3545 189.8526,32.6665 189.5996,34.5725 L195.8666,34.5725 C195.5706,32.7945 195.4846,31.6085 195.4846,29.1095 L195.4846,22.8845 L200.1016,18.2695 L208.5276,30.1265 C209.5026,31.5235 210.5606,33.3025 211.1956,34.5725 L219.0306,34.5725 C217.8026,33.2175 217.3366,32.6255 214.7956,29.1945 L204.0396,14.6275 Z" id="Fill-9" fill="#231F20"></path>
                <path d="M253.065,34.5728 C252.472,33.4708 251.964,32.2858 250.906,29.5758 L241.505,5.1418 C240.532,2.5588 240.277,1.8818 240.065,0.8648 L232.697,0.8648 C232.486,1.9668 232.145,3.0248 231.341,5.1418 L222.026,29.5758 C221.263,31.5238 220.417,33.4288 219.782,34.5728 L226.725,34.5728 C227.064,32.7948 227.235,32.1598 227.997,30.1268 L229.689,25.5098 L243.242,25.5098 L244.934,30.1268 C245.401,31.3538 245.867,33.1758 246.121,34.5728 L253.065,34.5728 Z M241.716,20.6398 L231.214,20.6398 L235.619,8.1048 C235.746,7.7248 235.746,7.7248 236.423,5.7348 C236.888,7.1318 237.016,7.6398 237.185,8.1048 L241.716,20.6398 Z" id="Fill-11" fill="#231F20"></path>
                <path d="M255.1295,24.7066 C255.3835,26.4416 255.5525,27.2476 255.9345,28.2206 C256.7385,30.2956 257.9665,31.9046 259.6605,33.0486 C261.6925,34.4026 265.0805,35.2506 268.5535,35.2506 C273.0845,35.2506 276.4295,34.1916 278.6745,32.0316 C280.4105,30.2956 281.3425,27.8396 281.3425,24.8326 C281.3425,21.6576 280.2415,19.3276 277.8275,17.5496 C276.3025,16.4916 274.2695,15.6856 270.9245,14.9666 C266.2245,13.9076 265.8855,13.8236 264.9535,13.4416 C263.0065,12.5946 262.0745,11.3676 262.0745,9.5886 C262.0745,6.8356 264.5725,4.9726 268.2565,4.9726 C270.5865,4.9726 272.4495,5.6926 273.5505,7.0046 C274.2695,7.8526 274.5665,8.5706 274.8205,10.0126 L280.8765,9.2916 C280.3685,7.0476 279.8585,5.7776 278.8015,4.3796 C276.7265,1.5846 273.0845,0.1026 268.2565,0.1026 C260.9735,0.1026 256.2305,3.9136 256.2305,9.8006 C256.2305,12.6376 257.3315,14.9666 259.4905,16.6606 C261.0165,17.8466 262.7095,18.5226 265.8855,19.2436 C271.7295,20.5986 271.9835,20.6406 273.2545,21.3176 C274.5665,22.0386 275.3715,23.4776 275.3715,25.2146 C275.3715,28.3906 272.8305,30.2956 268.5965,30.2956 C265.8435,30.2956 263.6415,29.4066 262.4125,27.7976 C261.6505,26.8236 261.3965,25.9766 261.2275,24.0706 L255.1295,24.7066 Z" id="Fill-13" fill="#231F20"></path>
                <path d="M285.0992,24.7066 C285.3532,26.4416 285.5222,27.2476 285.9042,28.2206 C286.7082,30.2956 287.9362,31.9046 289.6302,33.0486 C291.6632,34.4026 295.0512,35.2506 298.5232,35.2506 C303.0542,35.2506 306.4002,34.1916 308.6442,32.0316 C310.3802,30.2956 311.3122,27.8396 311.3122,24.8326 C311.3122,21.6576 310.2112,19.3276 307.7972,17.5496 C306.2732,16.4916 304.2412,15.6856 300.8952,14.9666 C296.1942,13.9076 295.8552,13.8236 294.9242,13.4416 C292.9762,12.5946 292.0442,11.3676 292.0442,9.5886 C292.0442,6.8356 294.5432,4.9726 298.2272,4.9726 C300.5562,4.9726 302.4192,5.6926 303.5202,7.0046 C304.2412,7.8526 304.5362,8.5706 304.7902,10.0126 L310.8462,9.2916 C310.3382,7.0476 309.8302,5.7776 308.7712,4.3796 C306.6962,1.5846 303.0542,0.1026 298.2272,0.1026 C290.9432,0.1026 286.2012,3.9136 286.2012,9.8006 C286.2012,12.6376 287.3012,14.9666 289.4612,16.6606 C290.9862,17.8466 292.6792,18.5226 295.8552,19.2436 C301.7002,20.5986 301.9532,20.6406 303.2242,21.3176 C304.5362,22.0386 305.3412,23.4776 305.3412,25.2146 C305.3412,28.3906 302.8002,30.2956 298.5662,30.2956 C295.8132,30.2956 293.6112,29.4066 292.3832,27.7976 C291.6212,26.8236 291.3672,25.9766 291.1972,24.0706 L285.0992,24.7066 Z" id="Fill-15" fill="#231F20"></path>
                <path d="M339.8004,29.2368 C337.9784,29.4488 337.1754,29.5338 334.8034,29.5338 L322.0994,29.5338 L322.0994,19.5408 L332.4324,19.5408 C335.0574,19.5408 336.2014,19.5828 337.9374,19.8368 L337.9374,14.2898 C336.0724,14.5008 334.6344,14.5858 332.4324,14.5858 L322.1424,14.5858 L322.1424,5.8618 L334.3374,5.8618 C336.8364,5.8618 338.1914,5.9458 339.8004,6.1578 L339.8004,0.5678 C337.8524,0.7798 336.4554,0.8648 334.3374,0.8648 L321.5494,0.8648 C318.9654,0.8648 317.8634,0.8218 316.1704,0.7368 C316.4244,2.7278 316.5094,3.9978 316.5094,6.1998 L316.5094,29.1098 C316.5094,31.6088 316.4244,33.0068 316.1704,34.6998 C317.8634,34.6148 319.0084,34.5718 321.5494,34.5718 L334.7604,34.5718 C337.3444,34.5718 338.2754,34.6578 339.8004,34.8688 L339.8004,29.2368 Z" id="Fill-17" fill="#231F20"></path>
                <path d="M75.0757,49.7739 C74.9267,50.6289 74.7767,51.0189 74.4597,51.4839 C73.8617,52.3569 72.7407,52.8589 71.4337,52.8589 C68.8187,52.8589 67.1757,50.7399 67.1757,47.3399 C67.1757,43.9199 68.7817,41.8569 71.4337,41.8569 C72.5917,41.8569 73.5257,42.2479 74.1607,43.0099 C74.5337,43.4369 74.7017,43.7899 74.9637,44.6079 L77.5597,44.0129 C77.3357,43.3069 77.2047,42.9729 76.9807,42.5819 C76.5127,41.7649 75.8417,41.0769 75.0007,40.5569 C73.9727,39.9429 72.8717,39.6649 71.4147,39.6649 C69.5477,39.6649 67.8667,40.2959 66.7457,41.4299 C65.3447,42.8239 64.5607,44.9789 64.5607,47.4319 C64.5607,49.8109 65.2887,51.9109 66.5967,53.2679 C67.7357,54.4379 69.3607,55.0519 71.3967,55.0519 C73.6377,55.0519 75.4297,54.3269 76.4957,53.0259 C77.0547,52.3009 77.3917,51.5769 77.7467,50.2389 L75.0757,49.7739 Z" id="Fill-19" fill="#231F20"></path>
                <path d="M95.8882,54.7544 C95.6272,54.2714 95.4022,53.7504 94.9362,52.5614 L90.7882,41.8394 C90.3602,40.7054 90.2472,40.4084 90.1542,39.9624 L86.9042,39.9624 C86.8112,40.4444 86.6612,40.9094 86.3072,41.8394 L82.1982,52.5614 C81.8622,53.4164 81.4882,54.2524 81.2082,54.7544 L84.2712,54.7544 C84.4202,53.9744 84.4942,53.6944 84.8302,52.8034 L85.5772,50.7764 L91.5552,50.7764 L92.3022,52.8034 C92.5072,53.3424 92.7132,54.1414 92.8252,54.7544 L95.8882,54.7544 Z M90.8832,48.6404 L86.2512,48.6404 L88.1932,43.1394 C88.2482,42.9724 88.2482,42.9724 88.5482,42.0994 C88.7532,42.7124 88.8102,42.9354 88.8842,43.1394 L90.8832,48.6404 Z" id="Fill-21" fill="#231F20"></path>
                <path d="M100.1627,50.4243 C100.2737,51.1873 100.3497,51.5393 100.5167,51.9663 C100.8727,52.8773 101.4137,53.5833 102.1607,54.0853 C103.0577,54.6793 104.5517,55.0513 106.0837,55.0513 C108.0817,55.0513 109.5577,54.5873 110.5467,53.6393 C111.3117,52.8773 111.7237,51.7993 111.7237,50.4813 C111.7237,49.0863 111.2367,48.0653 110.1737,47.2833 C109.5007,46.8203 108.6037,46.4663 107.1297,46.1513 C105.0557,45.6863 104.9057,45.6493 104.4957,45.4823 C103.6367,45.1103 103.2257,44.5703 103.2257,43.7903 C103.2257,42.5823 104.3277,41.7643 105.9527,41.7643 C106.9787,41.7643 107.8017,42.0803 108.2867,42.6563 C108.6037,43.0283 108.7347,43.3433 108.8477,43.9773 L111.5177,43.6593 C111.2947,42.6753 111.0687,42.1173 110.6017,41.5043 C109.6867,40.2783 108.0817,39.6273 105.9527,39.6273 C102.7387,39.6273 100.6477,41.2993 100.6477,43.8833 C100.6477,45.1283 101.1337,46.1513 102.0867,46.8943 C102.7587,47.4133 103.5057,47.7113 104.9057,48.0273 C107.4827,48.6213 107.5957,48.6403 108.1557,48.9383 C108.7347,49.2533 109.0897,49.8853 109.0897,50.6483 C109.0897,52.0413 107.9697,52.8773 106.1007,52.8773 C104.8877,52.8773 103.9167,52.4873 103.3747,51.7813 C103.0387,51.3543 102.9267,50.9833 102.8507,50.1463 L100.1627,50.4243 Z" id="Fill-23" fill="#231F20"></path>
                <path d="M117.5572,50.4243 C117.6682,51.1873 117.7442,51.5393 117.9112,51.9663 C118.2672,52.8773 118.8082,53.5833 119.5552,54.0853 C120.4522,54.6793 121.9462,55.0513 123.4782,55.0513 C125.4762,55.0513 126.9522,54.5873 127.9412,53.6393 C128.7062,52.8773 129.1182,51.7993 129.1182,50.4813 C129.1182,49.0863 128.6312,48.0653 127.5682,47.2833 C126.8952,46.8203 125.9982,46.4663 124.5242,46.1513 C122.4512,45.6863 122.3012,45.6493 121.8902,45.4823 C121.0312,45.1103 120.6202,44.5703 120.6202,43.7903 C120.6202,42.5823 121.7222,41.7643 123.3472,41.7643 C124.3732,41.7643 125.1962,42.0803 125.6812,42.6563 C125.9982,43.0283 126.1292,43.3433 126.2422,43.9773 L128.9122,43.6593 C128.6892,42.6753 128.4632,42.1173 127.9962,41.5043 C127.0812,40.2783 125.4762,39.6273 123.3472,39.6273 C120.1342,39.6273 118.0422,41.2993 118.0422,43.8833 C118.0422,45.1283 118.5282,46.1513 119.4812,46.8943 C120.1532,47.4133 120.9002,47.7113 122.3012,48.0273 C124.8772,48.6213 124.9902,48.6403 125.5512,48.9383 C126.1292,49.2533 126.4842,49.8853 126.4842,50.6483 C126.4842,52.0413 125.3642,52.8773 123.4952,52.8773 C122.2822,52.8773 121.3112,52.4873 120.7692,51.7813 C120.4332,51.3543 120.3212,50.9833 120.2452,50.1463 L117.5572,50.4243 Z" id="Fill-25" fill="#231F20"></path>
                <path d="M148.0718,54.7544 C147.8108,54.2714 147.5858,53.7504 147.1198,52.5614 L142.9728,41.8394 C142.5438,40.7054 142.4308,40.4084 142.3388,39.9624 L139.0888,39.9624 C138.9948,40.4444 138.8458,40.9094 138.4908,41.8394 L134.3828,52.5614 C134.0468,53.4164 133.6728,54.2524 133.3918,54.7544 L136.4548,54.7544 C136.6038,53.9744 136.6788,53.6944 137.0148,52.8034 L137.7618,50.7764 L143.7388,50.7764 L144.4858,52.8034 C144.6908,53.3424 144.8968,54.1414 145.0088,54.7544 L148.0718,54.7544 Z M143.0668,48.6404 L138.4348,48.6404 L140.3768,43.1394 C140.4328,42.9724 140.4328,42.9724 140.7318,42.0994 C140.9368,42.7124 140.9928,42.9354 141.0678,43.1394 L143.0668,48.6404 Z" id="Fill-27" fill="#231F20"></path>
                <path d="M163.1929,52.3569 C163.1929,53.4719 163.1559,54.0479 163.0449,54.8099 C163.8089,54.7729 164.2759,54.7539 165.4169,54.7539 L168.8149,54.7539 C171.0189,54.7539 172.5129,54.2529 173.7089,53.1379 C175.1659,51.7619 175.9129,49.7549 175.9129,47.2279 C175.9129,44.8119 175.2029,42.8799 173.8389,41.5969 C172.6439,40.4449 171.1309,39.9619 168.7969,39.9619 L165.4169,39.9619 C164.2389,39.9619 163.7919,39.9429 163.0449,39.9059 C163.1559,40.7239 163.1929,41.2809 163.1929,42.3219 L163.1929,52.3569 Z M165.6769,52.5609 L165.6769,42.1549 L168.6659,42.1549 C170.2909,42.1549 171.2619,42.4709 172.0269,43.2699 C172.8859,44.1619 173.3159,45.4809 173.3159,47.2469 C173.3159,48.9929 172.8489,50.4249 171.9539,51.3719 C171.1689,52.2079 170.1779,52.5609 168.6469,52.5609 L165.6769,52.5609 Z" id="Fill-29" fill="#231F20"></path>
                <path d="M181.1431,39.9624 C181.2551,40.7054 181.2921,41.2074 181.2921,42.3584 L181.2921,52.3574 C181.2921,53.4524 181.2551,54.0484 181.1431,54.7544 L183.9821,54.7544 C183.8701,54.0484 183.8321,53.4524 183.8321,52.3574 L183.8321,42.3584 C183.8321,41.2434 183.8701,40.6684 183.9821,39.9624 L181.1431,39.9624 Z" id="Fill-31" fill="#231F20"></path>
                <path d="M212.7203,54.7544 C212.4583,54.2524 211.9923,53.2494 211.8423,52.9144 C209.9933,48.5664 209.6383,48.0464 208.4623,47.6744 C209.5273,47.3774 210.0123,47.1354 210.5353,46.5964 C211.1703,45.9454 211.4883,45.0174 211.4883,43.8274 C211.4883,41.3744 209.8643,39.9624 207.0243,39.9624 L202.5413,39.9624 C201.5143,39.9624 200.9353,39.9424 200.1513,39.9054 C200.2623,40.7784 200.3003,41.3374 200.3003,42.3214 L200.3003,52.3384 C200.3003,53.4724 200.2623,53.9744 200.1513,54.7544 L202.9333,54.7544 C202.8223,54.0294 202.7843,53.4354 202.7843,52.3194 L202.7843,48.5284 L205.5683,48.5284 C207.0053,48.5284 207.6593,49.2164 208.6673,51.7804 C209.2833,53.3594 209.6013,54.3084 209.6383,54.7544 L212.7203,54.7544 Z M202.7843,46.4104 L202.7843,42.0804 L206.6143,42.0804 C208.1443,42.0804 208.9103,42.7684 208.9103,44.1064 C208.9103,44.8124 208.7053,45.3514 208.3133,45.7404 C207.8833,46.1694 207.2293,46.4104 206.5383,46.4104 L202.7843,46.4104 Z" id="Fill-33" fill="#231F20"></path>
                <path d="M216.9634,39.9624 C217.0754,40.7054 217.1124,41.2074 217.1124,42.3584 L217.1124,52.3574 C217.1124,53.4524 217.0754,54.0484 216.9634,54.7544 L219.8034,54.7544 C219.6914,54.0484 219.6524,53.4524 219.6524,52.3574 L219.6524,42.3584 C219.6524,41.2434 219.6914,40.6684 219.8034,39.9624 L216.9634,39.9624 Z" id="Fill-35" fill="#231F20"></path>
                <path d="M226.5836,50.4243 C226.6956,51.1873 226.7706,51.5393 226.9386,51.9663 C227.2936,52.8773 227.8346,53.5833 228.5816,54.0853 C229.4796,54.6793 230.9736,55.0513 232.5046,55.0513 C234.5026,55.0513 235.9786,54.5873 236.9676,53.6393 C237.7336,52.8773 238.1456,51.7993 238.1456,50.4813 C238.1456,49.0863 237.6586,48.0653 236.5946,47.2833 C235.9216,46.8203 235.0256,46.4663 233.5496,46.1513 C231.4776,45.6863 231.3276,45.6493 230.9166,45.4823 C230.0586,45.1103 229.6466,44.5703 229.6466,43.7903 C229.6466,42.5823 230.7486,41.7643 232.3736,41.7643 C233.4006,41.7643 234.2236,42.0803 234.7076,42.6563 C235.0256,43.0283 235.1566,43.3433 235.2696,43.9773 L237.9396,43.6593 C237.7156,42.6753 237.4906,42.1173 237.0236,41.5043 C236.1086,40.2783 234.5026,39.6273 232.3736,39.6273 C229.1606,39.6273 227.0696,41.2993 227.0696,43.8833 C227.0696,45.1283 227.5556,46.1513 228.5076,46.8943 C229.1806,47.4133 229.9266,47.7113 231.3276,48.0273 C233.9046,48.6213 234.0176,48.6403 234.5776,48.9383 C235.1566,49.2533 235.5106,49.8853 235.5106,50.6483 C235.5106,52.0413 234.3916,52.8773 232.5226,52.8773 C231.3096,52.8773 230.3376,52.4873 229.7956,51.7813 C229.4596,51.3543 229.3486,50.9833 229.2726,50.1463 L226.5836,50.4243 Z" id="Fill-37" fill="#231F20"></path>
                <path d="M246.6773,54.7544 C246.5653,54.0484 246.5283,53.3424 246.5283,52.3384 L246.5283,49.2344 L250.0953,49.2344 C251.8883,49.2344 253.1573,48.8074 254.0733,47.8974 C254.8953,47.0424 255.3243,45.8904 255.3243,44.4774 C255.3243,43.1394 254.9323,42.0244 254.1653,41.2804 C253.2703,40.3894 251.9993,39.9624 250.1883,39.9624 L246.2843,39.9624 C245.2943,39.9624 244.7153,39.9424 243.9123,39.9054 C244.0253,40.7424 244.0623,41.4114 244.0623,42.3034 L244.0623,52.3574 C244.0623,53.3594 244.0253,54.0114 243.9123,54.7544 L246.6773,54.7544 Z M246.5283,47.0984 L246.5283,42.0994 L250.0953,42.0994 C251.0843,42.0994 251.7003,42.3034 252.1303,42.7684 C252.5413,43.1944 252.7463,43.8094 252.7463,44.5524 C252.7463,46.1874 251.8133,47.0984 250.0953,47.0984 L246.5283,47.0984 Z" id="Fill-39" fill="#231F20"></path>
                <path d="M272.8414,54.7544 C272.5794,54.2714 272.3554,53.7504 271.8894,52.5614 L267.7414,41.8394 C267.3134,40.7054 267.2004,40.4084 267.1074,39.9624 L263.8574,39.9624 C263.7644,40.4444 263.6144,40.9094 263.2604,41.8394 L259.1514,52.5614 C258.8154,53.4164 258.4414,54.2524 258.1604,54.7544 L261.2244,54.7544 C261.3724,53.9744 261.4474,53.6944 261.7834,52.8034 L262.5304,50.7764 L268.5084,50.7764 L269.2554,52.8034 C269.4604,53.3424 269.6664,54.1414 269.7784,54.7544 L272.8414,54.7544 Z M267.8364,48.6404 L263.2034,48.6404 L265.1464,43.1394 C265.2014,42.9724 265.2014,42.9724 265.5014,42.0994 C265.7054,42.7124 265.7624,42.9354 265.8374,43.1394 L267.8364,48.6404 Z" id="Fill-41" fill="#231F20"></path>
                <path d="M289.9849,54.7544 C289.7229,54.2524 289.2569,53.2494 289.1069,52.9144 C287.2579,48.5664 286.9029,48.0464 285.7269,47.6744 C286.7919,47.3774 287.2769,47.1354 287.7999,46.5964 C288.4349,45.9454 288.7529,45.0174 288.7529,43.8274 C288.7529,41.3744 287.1279,39.9624 284.2889,39.9624 L279.8059,39.9624 C278.7789,39.9624 278.2009,39.9424 277.4159,39.9054 C277.5269,40.7784 277.5649,41.3374 277.5649,42.3214 L277.5649,52.3384 C277.5649,53.4724 277.5269,53.9744 277.4159,54.7544 L280.1979,54.7544 C280.0869,54.0294 280.0489,53.4354 280.0489,52.3194 L280.0489,48.5284 L282.8329,48.5284 C284.2699,48.5284 284.9239,49.2164 285.9319,51.7804 C286.5479,53.3594 286.8659,54.3084 286.9029,54.7544 L289.9849,54.7544 Z M280.0489,46.4104 L280.0489,42.0804 L283.8789,42.0804 C285.4099,42.0804 286.1749,42.7684 286.1749,44.1064 C286.1749,44.8124 285.9699,45.3514 285.5779,45.7404 C285.1479,46.1694 284.4949,46.4104 283.8029,46.4104 L280.0489,46.4104 Z" id="Fill-43" fill="#231F20"></path>
                <path d="M304.2457,54.7544 C304.3567,54.1954 304.6927,53.1554 305.0667,52.2834 L307.8687,45.7404 C308.1307,45.0714 308.4847,44.0304 308.7267,43.0274 C308.7097,43.3074 308.6527,44.2554 308.5787,45.8714 L308.5787,52.0414 C308.5787,53.3224 308.5407,53.9924 308.4297,54.7544 L311.0437,54.7544 C310.9317,54.0674 310.8937,53.3974 310.8937,52.0414 L310.8937,42.7124 C310.8937,41.4674 310.9317,40.8544 311.0437,39.9624 L307.6067,39.9624 C307.4757,40.6684 307.3087,41.2634 306.9337,42.1734 L303.1627,51.3904 L299.3707,42.1734 C299.0537,41.3934 298.8097,40.6114 298.6797,39.9624 L295.2617,39.9624 C295.3737,40.7244 295.4117,41.5044 295.4117,42.7124 L295.4117,52.0414 C295.4117,53.2864 295.3737,54.0114 295.2617,54.7544 L297.8767,54.7544 C297.7647,54.0294 297.7267,53.3224 297.7267,52.0414 L297.7267,45.9454 C297.7267,45.5374 297.6517,44.0134 297.5787,43.0274 C298.0077,44.5334 298.1757,45.0354 298.5307,45.8714 L301.2197,52.2454 C301.6487,53.2864 301.9487,54.1594 302.0417,54.7544 L304.2457,54.7544 Z" id="Fill-45" fill="#231F20"></path>
                <path d="M317.5318,39.9624 C317.6438,40.7054 317.6798,41.2074 317.6798,42.3584 L317.6798,52.3574 C317.6798,53.4524 317.6438,54.0484 317.5318,54.7544 L320.3708,54.7544 C320.2588,54.0484 320.2198,53.4524 320.2198,52.3574 L320.2198,42.3584 C320.2198,41.2434 320.2588,40.6684 320.3708,39.9624 L317.5318,39.9624 Z" id="Fill-47" fill="#231F20"></path>
                <path d="M332.7964,39.6646 C330.8174,39.6646 329.2664,40.2596 327.9774,41.5226 C326.5954,42.8606 325.8484,44.9236 325.8484,47.3206 C325.8484,52.0416 328.5754,55.0706 332.8154,55.0706 C337.0544,55.0706 339.8004,52.0226 339.8004,47.3206 C339.8004,44.9046 339.0714,42.8796 337.7084,41.5226 C336.4384,40.2596 334.8504,39.6646 332.7964,39.6646 M332.8524,52.8586 C331.7134,52.8586 330.7234,52.4686 329.9574,51.7256 C328.9864,50.7586 328.4444,49.1976 328.4444,47.3396 C328.4444,43.9766 330.1444,41.8576 332.8334,41.8576 C333.9544,41.8576 334.9444,42.2476 335.7094,42.9916 C336.6624,43.9386 337.1854,45.4446 337.1854,47.3206 C337.1854,50.7406 335.5244,52.8586 332.8524,52.8586" id="Fill-49" fill="#231F20"></path>
                <mask id="mask-2" fill="white">
                    <use xlink:href="#path-1"></use>
                </mask>
                <g id="Clip-52"></g>
                <polygon id="Fill-51" fill="#DF0514" mask="url(#mask-2)" points="0 54.8326 54.745 54.8326 54.745 0.2366 0 0.2366"></polygon>
                <path d="M22.9732,22.4751 C22.9732,22.4751 22.4352,22.3851 21.6262,22.0261 C16.8692,19.8711 13.5462,15.6781 13.6292,9.7581 L13.6292,4.2581 L14.4342,4.2581 C14.4342,4.8861 14.4462,10.9861 14.5352,11.6151 C14.8952,15.8331 18.2162,19.9621 22.2552,21.4881 C22.7922,21.6671 23.2422,21.8471 23.2422,21.8471 C23.4652,21.9401 23.5482,22.0981 23.4832,22.2661 C23.3592,22.5911 22.9732,22.4751 22.9732,22.4751" id="Fill-53" fill="#FEFEFE" mask="url(#mask-2)"></path>
                <path d="M15.1422,27.5357 L18.3062,23.3727 C18.3962,23.2827 18.5782,23.0987 18.8512,23.2877 C19.1212,23.4747 19.0472,23.6497 18.9342,23.8207 L16.1202,27.5457" id="Fill-54" fill="#FEFEFE" mask="url(#mask-2)"></path>
                <path d="M20.5904,27.5278 L21.6264,24.8978 C21.6734,24.7708 21.8704,24.6088 22.1124,24.7118 C22.3684,24.8178 22.3964,24.9938 22.3444,25.1678 L21.4014,27.5268 L20.5904,27.5278 Z" id="Fill-55" fill="#FEFEFE" mask="url(#mask-2)"></path>
                <path d="M27.5504,8.2036 L28.1784,8.2036 L28.1784,8.0246 L25.6654,8.0246 L25.6654,8.2036 L26.2044,8.2036 C26.2044,8.5626 26.4734,8.7426 26.8324,8.7426 C27.1924,8.7426 27.5504,8.5626 27.5504,8.2036" id="Fill-56" fill="#FEFEFE" mask="url(#mask-2)"></path>
                <path d="M40.5923,27.5415 L37.4233,23.3725 C37.3343,23.2825 37.2003,23.0645 36.8843,23.2735 C36.6473,23.4305 36.7223,23.6505 36.7953,23.8215 L39.6153,27.5555 L40.5923,27.5415 Z" id="Fill-57" fill="#FEFEFE" mask="url(#mask-2)"></path>
                <path d="M35.15,27.5562 L34.102,24.8992 C34.013,24.7432 33.919,24.6802 33.744,24.7192 C33.559,24.7602 33.324,24.8912 33.384,25.1672 L34.336,27.5442 L35.15,27.5562 Z" id="Fill-58" fill="#FEFEFE" mask="url(#mask-2)"></path>
                <path d="M45.2447,25.3472 C46.3217,24.1802 47.3087,22.8342 48.1167,21.4872 L41.5647,18.6162 C41.3677,18.5052 41.3067,18.2782 41.4557,18.0512 C41.5647,17.8832 41.7447,17.8072 41.9237,17.8972 L48.4757,20.7692 C49.1937,19.4232 49.8217,17.9872 50.3607,16.4612 L43.1807,15.2052 C43.0447,15.1692 42.8697,15.0382 42.9427,14.7052 C43.0047,14.4202 43.2717,14.3912 43.3597,14.3972 L50.5397,15.7432 C50.9887,14.3972 51.2577,12.9612 51.3477,11.4352 L43.9877,11.4352 C43.8987,11.4352 43.5967,11.3692 43.5967,11.0632 C43.5967,10.8642 43.8087,10.7172 43.9877,10.7172 L51.4377,10.7172 L51.4377,9.1912 L51.4377,4.7542 L36.7177,4.7542 C35.7307,4.7542 34.9227,5.5622 34.9227,6.5492 L35.0127,13.4102 C35.0127,14.3072 34.0257,15.0252 33.3067,15.0252 L33.3067,14.0382 L34.2947,14.0382 L33.2177,11.3452 L34.2947,10.9862 L32.5897,8.6532 L33.3067,8.0242 L30.6147,6.5882 L31.1537,5.6012 C31.1537,5.6012 31.1537,5.6912 31.1537,5.6012 L25.9477,5.6912 C24.6337,5.7562 24.5117,6.0502 24.1527,6.6782 C24.0627,6.9482 23.9727,7.2172 23.8827,7.4862 C22.7167,7.5762 21.6397,7.7552 20.8317,8.7432 C20.2927,9.4602 20.1137,10.2682 20.2927,11.2562 C20.2927,11.3452 20.3827,11.5252 20.5627,11.5252 C20.7417,11.5252 20.8317,11.2562 20.8317,11.0762 C21.0107,10.3582 21.8187,9.9992 22.5367,9.8192 C23.0757,9.7302 23.7037,9.7302 24.1527,9.9092 C24.6907,10.2682 24.8707,10.6712 24.8707,11.0312 L22.6267,11.0312 C23.1647,11.4792 23.7037,12.3322 24.2417,12.8712 C23.8827,13.5892 23.5237,14.3072 23.2547,15.0252 L21.4597,15.0252 C20.4727,15.0252 19.5747,14.1282 19.5747,13.1402 L19.5747,6.5492 C19.5747,5.5622 18.7667,4.7542 17.7797,4.7542 L3.0597,4.7542 L3.0597,9.1012 L3.0597,10.6272 L10.5097,10.7172 C10.7927,10.7152 10.8637,10.8372 10.8677,11.0762 C10.8727,11.3812 10.6847,11.4282 10.5097,11.4352 L3.1497,11.4352 C3.2397,12.9612 3.5087,14.3972 3.9577,15.7432 L11.1377,14.3972 C11.3177,14.3972 11.5207,14.3932 11.5847,14.7202 C11.6537,15.0722 11.4917,15.1522 11.3177,15.2052 C11.2617,15.2222 4.1367,16.4612 4.1367,16.4612 C4.6757,17.9872 5.2137,19.4232 6.0217,20.7692 L12.5737,17.8972 C12.7537,17.8072 12.9557,17.8342 13.0837,18.0912 C13.2667,18.4572 13.0297,18.5602 12.9317,18.6162 L6.3807,21.4872 C7.1887,22.8342 8.1757,24.1802 9.2527,25.3472 L14.9077,20.8592 C14.9977,20.7692 15.2437,20.7462 15.3847,20.9262 C15.5797,21.1742 15.4457,21.3982 15.3567,21.4872 L9.7917,25.8852 C10.4197,26.6032 10.8867,27.0022 11.6697,27.5352 L1.1097,27.5352 L1.1097,1.3282 L53.6307,1.3282 L53.6307,27.5352 L42.8317,27.5352 C43.6397,26.9952 44.0777,26.6032 44.7057,25.8852 L39.1417,21.4872 C39.0007,21.2922 38.9657,21.0912 39.1377,20.9212 C39.3177,20.7432 39.5797,20.8492 39.5897,20.8592 L45.2447,25.3472 Z" id="Fill-59" fill="#FEFEFE" mask="url(#mask-2)"></path>
                <path d="M41.2339,4.2578 C41.2339,4.8858 41.2219,10.9858 41.1309,11.6148 C40.7729,15.8328 37.4519,19.9628 33.4129,21.4878 C32.8739,21.6668 32.4259,21.8468 32.4259,21.8468 C32.2589,21.9558 32.1469,22.1488 32.2229,22.3108 C32.3509,22.5808 32.6949,22.4748 32.6949,22.4748 C32.6949,22.4748 33.2329,22.3848 34.0409,22.0258 C38.7969,19.8718 42.1219,15.6778 42.0389,9.7578 L42.0389,4.2578 L41.2339,4.2578 Z" id="Fill-60" fill="#FEFEFE" mask="url(#mask-2)"></path>
                <polygon id="Fill-61" fill="#FEFEFE" mask="url(#mask-2)" points="27.006 46.5926 27.913 46.5926 27.913 45.5836 27.006 45.5836"></polygon>
                <polygon id="Fill-62" fill="#FEFEFE" mask="url(#mask-2)" points="27.006 48.1046 27.913 48.1046 27.913 47.1976 27.006 47.1976"></polygon>
                <path d="M27.5103,45.0786 C28.2163,45.0786 28.7213,44.4746 28.7213,43.7676 C28.7213,43.0606 28.2163,42.5576 27.5103,42.5576 C26.8043,42.5576 26.1983,43.0606 26.1983,43.7676 C26.1983,44.4746 26.8043,45.0786 27.5103,45.0786" id="Fill-63" fill="#FEFEFE" mask="url(#mask-2)"></path>
                <path d="M28.9224,44.8775 C29.2264,44.5735 29.3264,44.1715 29.3264,43.7675 L29.3264,42.6565 L29.8304,42.6565 L29.8304,43.7675 C29.8304,44.9785 29.0244,45.4815 29.0244,45.4815 L30.9414,47.8035 C31.1434,48.1055 30.9414,48.4075 30.7384,48.4075 L29.8304,48.4075 L29.8304,50.3245 L29.3264,50.3245 L29.3264,48.4075 L28.7214,48.4075 C28.5194,48.4075 28.4184,48.2065 28.4184,48.1055 L28.4184,45.2795 C28.4184,45.2795 28.7214,45.0795 28.9224,44.8775" id="Fill-64" fill="#FEFEFE" mask="url(#mask-2)"></path>
                <path d="M28.9224,48.812 C28.9224,49.619 28.3184,50.224 27.5104,50.224 C26.7024,50.224 25.9964,49.619 25.9964,48.812 L28.9224,48.812 Z" id="Fill-65" fill="#FEFEFE" mask="url(#mask-2)"></path>
                <path d="M26.0132,44.8775 C25.7092,44.5735 25.6092,44.1715 25.6092,43.7675 L25.6092,42.6565 L25.1052,42.6565 L25.1052,43.7675 C25.1052,44.9785 25.9112,45.4815 25.9112,45.4815 L23.9942,47.8035 C23.7922,48.1055 23.9942,48.4075 24.1972,48.4075 L25.1052,48.4075 L25.1052,50.3245 L25.6092,50.3245 L25.6092,48.4075 L26.2142,48.4075 C26.4162,48.4075 26.5172,48.2065 26.5172,48.1055 L26.5172,45.2795 C26.5172,45.2795 26.2142,45.0795 26.0132,44.8775" id="Fill-66" fill="#FEFEFE" mask="url(#mask-2)"></path>
                <polygon id="Fill-67" fill="#FEFEFE" mask="url(#mask-2)" points="39.778 42.7956 40.686 42.7956 40.686 41.7866 39.778 41.7866"></polygon>
                <polygon id="Fill-68" fill="#FEFEFE" mask="url(#mask-2)" points="39.778 44.3086 40.686 44.3086 40.686 43.4016 39.778 43.4016"></polygon>
                <path d="M40.2828,41.2818 C40.9888,41.2818 41.4938,40.6778 41.4938,39.9708 C41.4938,39.2638 40.9888,38.7608 40.2828,38.7608 C39.5768,38.7608 38.9708,39.2638 38.9708,39.9708 C38.9708,40.6778 39.5768,41.2818 40.2828,41.2818" id="Fill-69" fill="#FEFEFE" mask="url(#mask-2)"></path>
                <path d="M41.6949,41.0806 C41.9989,40.7766 42.0989,40.3746 42.0989,39.9706 L42.0989,38.8596 L42.6029,38.8596 L42.6029,39.9706 C42.6029,41.1816 41.7969,41.6846 41.7969,41.6846 L43.7139,44.0066 C43.9159,44.3086 43.7139,44.6106 43.5109,44.6106 L42.6029,44.6106 L42.6029,46.5276 L42.0989,46.5276 L42.0989,44.6106 L41.4939,44.6106 C41.2929,44.6106 41.1909,44.4086 41.1909,44.3086 L41.1909,41.4836 C41.1909,41.4836 41.4939,41.2816 41.6949,41.0806" id="Fill-70" fill="#FEFEFE" mask="url(#mask-2)"></path>
                <path d="M41.6949,45.0142 C41.6949,45.8222 41.0909,46.4262 40.2839,46.4262 C39.4759,46.4262 38.7689,45.8222 38.7689,45.0142 L41.6949,45.0142 Z" id="Fill-71" fill="#FEFEFE" mask="url(#mask-2)"></path>
                <path d="M38.7857,41.0806 C38.4827,40.7766 38.3817,40.3746 38.3817,39.9706 L38.3817,38.8596 L37.8777,38.8596 L37.8777,39.9706 C37.8777,41.1816 38.6837,41.6846 38.6837,41.6846 L36.7667,44.0066 C36.5647,44.3086 36.7667,44.6106 36.9697,44.6106 L37.8777,44.6106 L37.8777,46.5276 L38.3817,46.5276 L38.3817,44.6106 L38.9877,44.6106 C39.1877,44.6106 39.2897,44.4086 39.2897,44.3086 L39.2897,41.4836 C39.2897,41.4836 38.9877,41.2816 38.7857,41.0806" id="Fill-72" fill="#FEFEFE" mask="url(#mask-2)"></path>
                <polygon id="Fill-73" fill="#FEFEFE" mask="url(#mask-2)" points="46.103 34.9806 47.011 34.9806 47.011 33.9716 46.103 33.9716"></polygon>
                <polygon id="Fill-74" fill="#FEFEFE" mask="url(#mask-2)" points="46.103 36.4956 47.011 36.4956 47.011 35.5876 46.103 35.5876"></polygon>
                <path d="M46.608,33.4683 C47.314,33.4683 47.819,32.8633 47.819,32.1563 C47.819,31.4493 47.314,30.9463 46.608,30.9463 C45.902,30.9463 45.297,31.4493 45.297,32.1563 C45.297,32.8633 45.902,33.4683 46.608,33.4683" id="Fill-75" fill="#FEFEFE" mask="url(#mask-2)"></path>
                <path d="M48.0201,33.2661 C48.3241,32.9631 48.4241,32.5601 48.4241,32.1571 L48.4241,31.0461 L48.9281,31.0461 L48.9281,32.1571 C48.9281,33.3681 48.1221,33.8711 48.1221,33.8711 L50.0391,36.1931 C50.2411,36.4951 50.0391,36.7971 49.8361,36.7971 L48.9281,36.7971 L48.9281,38.7141 L48.4241,38.7141 L48.4241,36.7971 L47.8191,36.7971 C47.6181,36.7971 47.5161,36.5951 47.5161,36.4951 L47.5161,33.6691 C47.5161,33.6691 47.8191,33.4681 48.0201,33.2661" id="Fill-76" fill="#FEFEFE" mask="url(#mask-2)"></path>
                <path d="M48.0201,37.2007 C48.0201,38.0087 47.4161,38.6127 46.6091,38.6127 C45.8011,38.6127 45.0941,38.0087 45.0941,37.2007 L48.0201,37.2007 Z" id="Fill-77" fill="#FEFEFE" mask="url(#mask-2)"></path>
                <path d="M45.1109,33.2661 C44.8069,32.9631 44.7079,32.5601 44.7079,32.1571 L44.7079,31.0461 L44.2029,31.0461 L44.2029,32.1571 C44.2029,33.3681 45.0089,33.8711 45.0089,33.8711 L43.0919,36.1931 C42.8909,36.4951 43.0919,36.7971 43.2949,36.7971 L44.2029,36.7971 L44.2029,38.7141 L44.7079,38.7141 L44.7079,36.7971 L45.3129,36.7971 C45.5139,36.7971 45.6149,36.5951 45.6149,36.4951 L45.6149,33.6691 C45.6149,33.6691 45.3129,33.4681 45.1109,33.2661" id="Fill-78" fill="#FEFEFE" mask="url(#mask-2)"></path>
                <polygon id="Fill-79" fill="#FEFEFE" mask="url(#mask-2)" points="33.484 34.9806 34.392 34.9806 34.392 33.9716 33.484 33.9716"></polygon>
                <polygon id="Fill-80" fill="#FEFEFE" mask="url(#mask-2)" points="33.484 36.4956 34.392 36.4956 34.392 35.5876 33.484 35.5876"></polygon>
                <path d="M33.9879,33.4683 C34.6939,33.4683 35.1999,32.8633 35.1999,32.1563 C35.1999,31.4493 34.6939,30.9463 33.9879,30.9463 C33.2819,30.9463 32.6769,31.4493 32.6769,32.1563 C32.6769,32.8633 33.2819,33.4683 33.9879,33.4683" id="Fill-81" fill="#FEFEFE" mask="url(#mask-2)"></path>
                <path d="M35.4009,33.2661 C35.7039,32.9631 35.8039,32.5601 35.8039,32.1571 L35.8039,31.0461 L36.3089,31.0461 L36.3089,32.1571 C36.3089,33.3681 35.5019,33.8711 35.5019,33.8711 L37.4189,36.1931 C37.6209,36.4951 37.4189,36.7971 37.2159,36.7971 L36.3089,36.7971 L36.3089,38.7141 L35.8039,38.7141 L35.8039,36.7971 L35.1989,36.7971 C34.9979,36.7971 34.8969,36.5951 34.8969,36.4951 L34.8969,33.6691 C34.8969,33.6691 35.1989,33.4681 35.4009,33.2661" id="Fill-82" fill="#FEFEFE" mask="url(#mask-2)"></path>
                <path d="M35.4009,37.2007 C35.4009,38.0087 34.7959,38.6127 33.9889,38.6127 C33.1809,38.6127 32.4749,38.0087 32.4749,37.2007 L35.4009,37.2007 Z" id="Fill-83" fill="#FEFEFE" mask="url(#mask-2)"></path>
                <path d="M32.4908,33.2661 C32.1878,32.9631 32.0868,32.5601 32.0868,32.1571 L32.0868,31.0461 L31.5828,31.0461 L31.5828,32.1571 C31.5828,33.3681 32.3898,33.8711 32.3898,33.8711 L30.4728,36.1931 C30.2708,36.4951 30.4728,36.7971 30.6758,36.7971 L31.5828,36.7971 L31.5828,38.7141 L32.0868,38.7141 L32.0868,36.7971 L32.6928,36.7971 C32.8938,36.7971 32.9948,36.5951 32.9948,36.4951 L32.9948,33.6691 C32.9948,33.6691 32.6928,33.4681 32.4908,33.2661" id="Fill-84" fill="#FEFEFE" mask="url(#mask-2)"></path>
                <polygon id="Fill-85" fill="#FEFEFE" mask="url(#mask-2)" points="13.989 42.7956 14.897 42.7956 14.897 41.7866 13.989 41.7866"></polygon>
                <polygon id="Fill-86" fill="#FEFEFE" mask="url(#mask-2)" points="13.989 44.3086 14.897 44.3086 14.897 43.4016 13.989 43.4016"></polygon>
                <path d="M14.4937,41.2818 C15.1997,41.2818 15.7047,40.6778 15.7047,39.9708 C15.7047,39.2638 15.1997,38.7608 14.4937,38.7608 C13.7877,38.7608 13.1817,39.2638 13.1817,39.9708 C13.1817,40.6778 13.7877,41.2818 14.4937,41.2818" id="Fill-87" fill="#FEFEFE" mask="url(#mask-2)"></path>
                <path d="M15.9058,41.0806 C16.2088,40.7766 16.3098,40.3746 16.3098,39.9706 L16.3098,38.8596 L16.8138,38.8596 L16.8138,39.9706 C16.8138,41.1816 16.0068,41.6846 16.0068,41.6846 L17.9238,44.0066 C18.1258,44.3086 17.9238,44.6106 17.7218,44.6106 L16.8138,44.6106 L16.8138,46.5276 L16.3098,46.5276 L16.3098,44.6106 L15.7038,44.6106 C15.5018,44.6106 15.4018,44.4086 15.4018,44.3086 L15.4018,41.4836 C15.4018,41.4836 15.7038,41.2816 15.9058,41.0806" id="Fill-88" fill="#FEFEFE" mask="url(#mask-2)"></path>
                <path d="M15.9058,45.0142 C15.9058,45.8222 15.3008,46.4262 14.4938,46.4262 C13.6858,46.4262 12.9798,45.8222 12.9798,45.0142 L15.9058,45.0142 Z" id="Fill-89" fill="#FEFEFE" mask="url(#mask-2)"></path>
                <path d="M12.9957,41.0806 C12.6927,40.7766 12.5927,40.3746 12.5927,39.9706 L12.5927,38.8596 L12.0887,38.8596 L12.0887,39.9706 C12.0887,41.1816 12.8947,41.6846 12.8947,41.6846 L10.9777,44.0066 C10.7757,44.3086 10.9777,44.6106 11.1807,44.6106 L12.0887,44.6106 L12.0887,46.5276 L12.5927,46.5276 L12.5927,44.6106 L13.1977,44.6106 C13.3997,44.6106 13.4997,44.4086 13.4997,44.3086 L13.4997,41.4836 C13.4997,41.4836 13.1977,41.2816 12.9957,41.0806" id="Fill-90" fill="#FEFEFE" mask="url(#mask-2)"></path>
                <polygon id="Fill-91" fill="#FEFEFE" mask="url(#mask-2)" points="20.283 34.9806 21.191 34.9806 21.191 33.9716 20.283 33.9716"></polygon>
                <polygon id="Fill-92" fill="#FEFEFE" mask="url(#mask-2)" points="20.283 36.4956 21.191 36.4956 21.191 35.5876 20.283 35.5876"></polygon>
                <path d="M20.7877,33.4683 C21.4937,33.4683 21.9987,32.8633 21.9987,32.1563 C21.9987,31.4493 21.4937,30.9463 20.7877,30.9463 C20.0817,30.9463 19.4757,31.4493 19.4757,32.1563 C19.4757,32.8633 20.0817,33.4683 20.7877,33.4683" id="Fill-93" fill="#FEFEFE" mask="url(#mask-2)"></path>
                <path d="M22.2007,33.2661 C22.5037,32.9631 22.6037,32.5601 22.6037,32.1571 L22.6037,31.0461 L23.1077,31.0461 L23.1077,32.1571 C23.1077,33.3681 22.3017,33.8711 22.3017,33.8711 L24.2187,36.1931 C24.4197,36.4951 24.2187,36.7971 24.0157,36.7971 L23.1077,36.7971 L23.1077,38.7141 L22.6037,38.7141 L22.6037,36.7971 L21.9987,36.7971 C21.7967,36.7971 21.6967,36.5951 21.6967,36.4951 L21.6967,33.6691 C21.6967,33.6691 21.9987,33.4681 22.2007,33.2661" id="Fill-94" fill="#FEFEFE" mask="url(#mask-2)"></path>
                <path d="M22.2007,37.2007 C22.2007,38.0087 21.5957,38.6127 20.7887,38.6127 C19.9797,38.6127 19.2737,38.0087 19.2737,37.2007 L22.2007,37.2007 Z" id="Fill-95" fill="#FEFEFE" mask="url(#mask-2)"></path>
                <path d="M19.2906,33.2661 C18.9876,32.9631 18.8866,32.5601 18.8866,32.1571 L18.8866,31.0461 L18.3826,31.0461 L18.3826,32.1571 C18.3826,33.3681 19.1896,33.8711 19.1896,33.8711 L17.2726,36.1931 C17.0706,36.4951 17.2726,36.7971 17.4746,36.7971 L18.3826,36.7971 L18.3826,38.7141 L18.8866,38.7141 L18.8866,36.7971 L19.4926,36.7971 C19.6936,36.7971 19.7946,36.5951 19.7946,36.4951 L19.7946,33.6691 C19.7946,33.6691 19.4926,33.4681 19.2906,33.2661" id="Fill-96" fill="#FEFEFE" mask="url(#mask-2)"></path>
                <polygon id="Fill-97" fill="#FEFEFE" mask="url(#mask-2)" points="7.725 34.9806 8.633 34.9806 8.633 33.9716 7.725 33.9716"></polygon>
                <polygon id="Fill-98" fill="#FEFEFE" mask="url(#mask-2)" points="7.725 36.4956 8.633 36.4956 8.633 35.5876 7.725 35.5876"></polygon>
                <path d="M8.2291,33.4683 C8.9351,33.4683 9.4401,32.8633 9.4401,32.1563 C9.4401,31.4493 8.9351,30.9463 8.2291,30.9463 C7.5231,30.9463 6.9171,31.4493 6.9171,32.1563 C6.9171,32.8633 7.5231,33.4683 8.2291,33.4683" id="Fill-99" fill="#FEFEFE" mask="url(#mask-2)"></path>
                <path d="M9.6422,33.2661 C9.9452,32.9631 10.0452,32.5601 10.0452,32.1571 L10.0452,31.0461 L10.5492,31.0461 L10.5492,32.1571 C10.5492,33.3681 9.7432,33.8711 9.7432,33.8711 L11.6602,36.1931 C11.8622,36.4951 11.6602,36.7971 11.4572,36.7971 L10.5492,36.7971 L10.5492,38.7141 L10.0452,38.7141 L10.0452,36.7971 L9.4402,36.7971 C9.2382,36.7971 9.1382,36.5951 9.1382,36.4951 L9.1382,33.6691 C9.1382,33.6691 9.4402,33.4681 9.6422,33.2661" id="Fill-100" fill="#FEFEFE" mask="url(#mask-2)"></path>
                <path d="M9.6422,37.2007 C9.6422,38.0087 9.0372,38.6127 8.2302,38.6127 C7.4212,38.6127 6.7152,38.0087 6.7152,37.2007 L9.6422,37.2007 Z" id="Fill-101" fill="#FEFEFE" mask="url(#mask-2)"></path>
                <path d="M6.732,33.2661 C6.429,32.9631 6.328,32.5601 6.328,32.1571 L6.328,31.0461 L5.824,31.0461 L5.824,32.1571 C5.824,33.3681 6.631,33.8711 6.631,33.8711 L4.714,36.1931 C4.512,36.4951 4.714,36.7971 4.916,36.7971 L5.824,36.7971 L5.824,38.7141 L6.328,38.7141 L6.328,36.7971 L6.934,36.7971 C7.136,36.7971 7.236,36.5951 7.236,36.4951 L7.236,33.6691 C7.236,33.6691 6.934,33.4681 6.732,33.2661" id="Fill-102" fill="#FEFEFE" mask="url(#mask-2)"></path>
            </g>
        </g>
    </g>
</svg>